<mxfile host="app.diagrams.net" modified="2024-07-06T03:16:31.297Z" agent="Mozilla/5.0 (Windows NT 10.0; Win64; x64) AppleWebKit/537.36 (KHTML, like Gecko) Chrome/126.0.0.0 Safari/537.36 Edg/126.0.0.0" etag="SbrcwWI50jpupdhGsLkA" version="24.6.4" type="github">
  <diagram name="Page-1" id="x1wS7tAdLxBI6kb2LVs8">
    <mxGraphModel dx="1532" dy="888" grid="1" gridSize="10" guides="1" tooltips="1" connect="1" arrows="1" fold="1" page="1" pageScale="1" pageWidth="1100" pageHeight="850" math="0" shadow="0">
      <root>
        <mxCell id="0" />
        <mxCell id="1" parent="0" />
        <mxCell id="jVWB3d9nEsfQf7vOruiU-46" value="" style="rounded=0;whiteSpace=wrap;html=1;fillColor=default;strokeColor=none;shadow=1;" vertex="1" parent="1">
          <mxGeometry x="10" y="6" width="1245" height="300" as="geometry" />
        </mxCell>
        <mxCell id="jVWB3d9nEsfQf7vOruiU-47" value="" style="edgeStyle=orthogonalEdgeStyle;rounded=0;orthogonalLoop=1;jettySize=auto;html=1;entryX=0;entryY=0.5;entryDx=0;entryDy=0;exitX=0.473;exitY=0.931;exitDx=0;exitDy=0;exitPerimeter=0;" edge="1" parent="1" source="jVWB3d9nEsfQf7vOruiU-49" target="jVWB3d9nEsfQf7vOruiU-52">
          <mxGeometry relative="1" as="geometry">
            <mxPoint x="100" y="79" as="targetPoint" />
            <Array as="points">
              <mxPoint x="99" y="244" />
            </Array>
          </mxGeometry>
        </mxCell>
        <mxCell id="jVWB3d9nEsfQf7vOruiU-48" value="" style="edgeStyle=orthogonalEdgeStyle;rounded=0;orthogonalLoop=1;jettySize=auto;html=1;" edge="1" parent="1" source="jVWB3d9nEsfQf7vOruiU-49" target="jVWB3d9nEsfQf7vOruiU-55">
          <mxGeometry relative="1" as="geometry" />
        </mxCell>
        <mxCell id="jVWB3d9nEsfQf7vOruiU-49" value="" style="ellipse;html=1;shape=startState;fillColor=#000000;strokeColor=#ff0000;" vertex="1" parent="1">
          <mxGeometry x="85" y="159" width="30" height="30" as="geometry" />
        </mxCell>
        <mxCell id="jVWB3d9nEsfQf7vOruiU-50" value="" style="edgeStyle=orthogonalEdgeStyle;rounded=0;orthogonalLoop=1;jettySize=auto;html=1;entryX=0.5;entryY=1;entryDx=0;entryDy=0;" edge="1" parent="1" source="jVWB3d9nEsfQf7vOruiU-52" target="jVWB3d9nEsfQf7vOruiU-64">
          <mxGeometry relative="1" as="geometry">
            <mxPoint x="355" y="114" as="targetPoint" />
          </mxGeometry>
        </mxCell>
        <mxCell id="jVWB3d9nEsfQf7vOruiU-51" value="" style="edgeStyle=orthogonalEdgeStyle;rounded=0;orthogonalLoop=1;jettySize=auto;html=1;entryX=0;entryY=0.5;entryDx=0;entryDy=0;dashed=1;" edge="1" parent="1" source="jVWB3d9nEsfQf7vOruiU-52" target="jVWB3d9nEsfQf7vOruiU-70">
          <mxGeometry relative="1" as="geometry">
            <mxPoint x="215" y="344" as="targetPoint" />
            <Array as="points">
              <mxPoint x="985" y="244" />
              <mxPoint x="985" y="73" />
            </Array>
          </mxGeometry>
        </mxCell>
        <mxCell id="jVWB3d9nEsfQf7vOruiU-52" value="采购待备料" style="rounded=1;whiteSpace=wrap;html=1;arcSize=40;fontColor=#000000;fillColor=#ffffc0;strokeColor=#ff0000;" vertex="1" parent="1">
          <mxGeometry x="155" y="224" width="120" height="40" as="geometry" />
        </mxCell>
        <mxCell id="jVWB3d9nEsfQf7vOruiU-53" value="" style="edgeStyle=orthogonalEdgeStyle;rounded=0;orthogonalLoop=1;jettySize=auto;html=1;" edge="1" parent="1" source="jVWB3d9nEsfQf7vOruiU-55" target="jVWB3d9nEsfQf7vOruiU-58">
          <mxGeometry relative="1" as="geometry" />
        </mxCell>
        <mxCell id="jVWB3d9nEsfQf7vOruiU-54" value="" style="edgeStyle=orthogonalEdgeStyle;rounded=0;orthogonalLoop=1;jettySize=auto;html=1;entryX=0;entryY=0.5;entryDx=0;entryDy=0;exitX=0.5;exitY=0;exitDx=0;exitDy=0;dashed=1;" edge="1" parent="1" source="jVWB3d9nEsfQf7vOruiU-55" target="jVWB3d9nEsfQf7vOruiU-70">
          <mxGeometry relative="1" as="geometry">
            <mxPoint x="215" y="74" as="targetPoint" />
          </mxGeometry>
        </mxCell>
        <mxCell id="jVWB3d9nEsfQf7vOruiU-55" value="设计待提交面辅料单" style="rounded=1;whiteSpace=wrap;html=1;arcSize=40;fontColor=#000000;fillColor=#ffffc0;strokeColor=#ff0000;" vertex="1" parent="1">
          <mxGeometry x="155" y="154" width="120" height="40" as="geometry" />
        </mxCell>
        <mxCell id="jVWB3d9nEsfQf7vOruiU-56" value="" style="edgeStyle=orthogonalEdgeStyle;rounded=0;orthogonalLoop=1;jettySize=auto;html=1;" edge="1" parent="1" source="jVWB3d9nEsfQf7vOruiU-58" target="jVWB3d9nEsfQf7vOruiU-61">
          <mxGeometry relative="1" as="geometry" />
        </mxCell>
        <mxCell id="jVWB3d9nEsfQf7vOruiU-57" value="" style="edgeStyle=orthogonalEdgeStyle;rounded=0;orthogonalLoop=1;jettySize=auto;html=1;entryX=0;entryY=0.5;entryDx=0;entryDy=0;exitX=0.5;exitY=0;exitDx=0;exitDy=0;dashed=1;" edge="1" parent="1" source="jVWB3d9nEsfQf7vOruiU-58" target="jVWB3d9nEsfQf7vOruiU-70">
          <mxGeometry relative="1" as="geometry">
            <mxPoint x="385" y="74" as="targetPoint" />
          </mxGeometry>
        </mxCell>
        <mxCell id="jVWB3d9nEsfQf7vOruiU-58" value="仓库待下需求单" style="rounded=1;whiteSpace=wrap;html=1;arcSize=40;fontColor=#000000;fillColor=#ffffc0;strokeColor=#ff0000;" vertex="1" parent="1">
          <mxGeometry x="325" y="154" width="120" height="40" as="geometry" />
        </mxCell>
        <mxCell id="jVWB3d9nEsfQf7vOruiU-59" value="" style="edgeStyle=orthogonalEdgeStyle;rounded=0;orthogonalLoop=1;jettySize=auto;html=1;" edge="1" parent="1" source="jVWB3d9nEsfQf7vOruiU-61" target="jVWB3d9nEsfQf7vOruiU-64">
          <mxGeometry relative="1" as="geometry" />
        </mxCell>
        <mxCell id="jVWB3d9nEsfQf7vOruiU-60" value="" style="edgeStyle=orthogonalEdgeStyle;rounded=0;orthogonalLoop=1;jettySize=auto;html=1;entryX=0;entryY=0.5;entryDx=0;entryDy=0;exitX=0.5;exitY=0;exitDx=0;exitDy=0;dashed=1;" edge="1" parent="1" source="jVWB3d9nEsfQf7vOruiU-61" target="jVWB3d9nEsfQf7vOruiU-70">
          <mxGeometry relative="1" as="geometry">
            <mxPoint x="555" y="74" as="targetPoint" />
          </mxGeometry>
        </mxCell>
        <mxCell id="jVWB3d9nEsfQf7vOruiU-61" value="采购物料待齐套" style="rounded=1;whiteSpace=wrap;html=1;arcSize=40;fontColor=#000000;fillColor=#ffffc0;strokeColor=#ff0000;" vertex="1" parent="1">
          <mxGeometry x="495" y="154" width="120" height="40" as="geometry" />
        </mxCell>
        <mxCell id="jVWB3d9nEsfQf7vOruiU-62" value="" style="edgeStyle=orthogonalEdgeStyle;rounded=0;orthogonalLoop=1;jettySize=auto;html=1;" edge="1" parent="1" source="jVWB3d9nEsfQf7vOruiU-64" target="jVWB3d9nEsfQf7vOruiU-66">
          <mxGeometry relative="1" as="geometry" />
        </mxCell>
        <mxCell id="jVWB3d9nEsfQf7vOruiU-63" value="" style="edgeStyle=orthogonalEdgeStyle;rounded=0;orthogonalLoop=1;jettySize=auto;html=1;entryX=0;entryY=0.5;entryDx=0;entryDy=0;exitX=0.5;exitY=0;exitDx=0;exitDy=0;dashed=1;" edge="1" parent="1" source="jVWB3d9nEsfQf7vOruiU-64" target="jVWB3d9nEsfQf7vOruiU-70">
          <mxGeometry relative="1" as="geometry">
            <mxPoint x="725" y="74" as="targetPoint" />
          </mxGeometry>
        </mxCell>
        <mxCell id="jVWB3d9nEsfQf7vOruiU-64" value="生产待下生产计划单" style="rounded=1;whiteSpace=wrap;html=1;arcSize=40;fontColor=#000000;fillColor=#ffffc0;strokeColor=#ff0000;" vertex="1" parent="1">
          <mxGeometry x="665" y="154" width="120" height="40" as="geometry" />
        </mxCell>
        <mxCell id="jVWB3d9nEsfQf7vOruiU-65" value="" style="edgeStyle=orthogonalEdgeStyle;rounded=0;orthogonalLoop=1;jettySize=auto;html=1;" edge="1" parent="1" source="jVWB3d9nEsfQf7vOruiU-66" target="jVWB3d9nEsfQf7vOruiU-68">
          <mxGeometry relative="1" as="geometry" />
        </mxCell>
        <mxCell id="jVWB3d9nEsfQf7vOruiU-66" value="生产在制中" style="rounded=1;whiteSpace=wrap;html=1;arcSize=40;fontColor=#000000;fillColor=#ffffc0;strokeColor=#ff0000;" vertex="1" parent="1">
          <mxGeometry x="835" y="154" width="120" height="40" as="geometry" />
        </mxCell>
        <mxCell id="jVWB3d9nEsfQf7vOruiU-67" value="" style="edgeStyle=orthogonalEdgeStyle;rounded=0;orthogonalLoop=1;jettySize=auto;html=1;entryX=0;entryY=0.5;entryDx=0;entryDy=0;" edge="1" parent="1" source="jVWB3d9nEsfQf7vOruiU-68" target="jVWB3d9nEsfQf7vOruiU-71">
          <mxGeometry relative="1" as="geometry" />
        </mxCell>
        <mxCell id="jVWB3d9nEsfQf7vOruiU-68" value="已完工" style="rounded=1;whiteSpace=wrap;html=1;arcSize=40;fontColor=#000000;fillColor=#ffffc0;strokeColor=#ff0000;" vertex="1" parent="1">
          <mxGeometry x="1015" y="154" width="120" height="40" as="geometry" />
        </mxCell>
        <mxCell id="jVWB3d9nEsfQf7vOruiU-69" value="" style="edgeStyle=orthogonalEdgeStyle;rounded=0;orthogonalLoop=1;jettySize=auto;html=1;" edge="1" parent="1" source="jVWB3d9nEsfQf7vOruiU-70" target="jVWB3d9nEsfQf7vOruiU-71">
          <mxGeometry relative="1" as="geometry">
            <mxPoint x="1215" y="114" as="targetPoint" />
          </mxGeometry>
        </mxCell>
        <mxCell id="jVWB3d9nEsfQf7vOruiU-70" value="已取消" style="rounded=1;whiteSpace=wrap;html=1;arcSize=40;fontColor=#000000;fillColor=#ffffc0;strokeColor=#ff0000;" vertex="1" parent="1">
          <mxGeometry x="1015" y="53" width="120" height="40" as="geometry" />
        </mxCell>
        <mxCell id="jVWB3d9nEsfQf7vOruiU-71" value="" style="ellipse;html=1;shape=endState;fillColor=#000000;strokeColor=#ff0000;" vertex="1" parent="1">
          <mxGeometry x="1185" y="159" width="30" height="30" as="geometry" />
        </mxCell>
        <mxCell id="jVWB3d9nEsfQf7vOruiU-72" value="结束" style="text;html=1;align=center;verticalAlign=middle;resizable=0;points=[];autosize=1;strokeColor=none;fillColor=none;" vertex="1" parent="1">
          <mxGeometry x="1175" y="189" width="50" height="30" as="geometry" />
        </mxCell>
        <mxCell id="jVWB3d9nEsfQf7vOruiU-73" value="取消" style="text;html=1;align=center;verticalAlign=middle;resizable=0;points=[];autosize=1;strokeColor=none;fillColor=none;" vertex="1" parent="1">
          <mxGeometry x="155" y="102" width="50" height="30" as="geometry" />
        </mxCell>
        <mxCell id="jVWB3d9nEsfQf7vOruiU-74" value="取消" style="text;html=1;align=center;verticalAlign=middle;resizable=0;points=[];autosize=1;strokeColor=none;fillColor=none;" vertex="1" parent="1">
          <mxGeometry x="335" y="102" width="50" height="30" as="geometry" />
        </mxCell>
        <mxCell id="jVWB3d9nEsfQf7vOruiU-75" value="取消" style="text;html=1;align=center;verticalAlign=middle;resizable=0;points=[];autosize=1;strokeColor=none;fillColor=none;" vertex="1" parent="1">
          <mxGeometry x="505" y="102" width="50" height="30" as="geometry" />
        </mxCell>
        <mxCell id="jVWB3d9nEsfQf7vOruiU-76" value="取消" style="text;html=1;align=center;verticalAlign=middle;resizable=0;points=[];autosize=1;strokeColor=none;fillColor=none;" vertex="1" parent="1">
          <mxGeometry x="675" y="102" width="50" height="30" as="geometry" />
        </mxCell>
        <mxCell id="jVWB3d9nEsfQf7vOruiU-77" value="" style="edgeStyle=orthogonalEdgeStyle;rounded=0;orthogonalLoop=1;jettySize=auto;html=1;entryX=0.5;entryY=1;entryDx=0;entryDy=0;exitX=1;exitY=0.5;exitDx=0;exitDy=0;" edge="1" parent="1" source="jVWB3d9nEsfQf7vOruiU-52" target="jVWB3d9nEsfQf7vOruiU-61">
          <mxGeometry relative="1" as="geometry">
            <mxPoint x="275" y="284" as="sourcePoint" />
            <mxPoint x="725" y="234" as="targetPoint" />
          </mxGeometry>
        </mxCell>
        <mxCell id="jVWB3d9nEsfQf7vOruiU-78" value="取消" style="text;html=1;align=center;verticalAlign=middle;resizable=0;points=[];autosize=1;strokeColor=none;fillColor=none;" vertex="1" parent="1">
          <mxGeometry x="760" y="242" width="50" height="30" as="geometry" />
        </mxCell>
        <mxCell id="jVWB3d9nEsfQf7vOruiU-79" value="凤禧生产计划跟踪状态机图 V1.0" style="text;html=1;align=center;verticalAlign=middle;resizable=0;points=[];autosize=1;strokeColor=none;fillColor=none;fontStyle=1" vertex="1" parent="1">
          <mxGeometry x="20" y="16" width="200" height="30" as="geometry" />
        </mxCell>
      </root>
    </mxGraphModel>
  </diagram>
</mxfile>
